<svg aria-hidden="true" style="position: absolute; width: 0; height: 0; overflow: hidden;" version="1.1" xmlns="http://www.w3.org/2000/svg" xmlns:xlink="http://www.w3.org/1999/xlink">
<defs>
<symbol id="icon-book" viewBox="0 0 28 32">
<path d="M6 0c-3.313 0-6 2.688-6 6v20c0 3.313 2.688 6 6 6h20c1.106 0 2-0.894 2-2s-0.894-2-2-2v-4c1.106 0 2-0.894 2-2v-20c0-1.106-0.894-2-2-2h-20zM6 24h16v4h-16c-1.106 0-2-0.894-2-2s0.894-2 2-2zM8 9c0-0.55 0.45-1 1-1h12c0.55 0 1 0.45 1 1s-0.45 1-1 1h-12c-0.55 0-1-0.45-1-1zM9 12h12c0.55 0 1 0.45 1 1s-0.45 1-1 1h-12c-0.55 0-1-0.45-1-1s0.45-1 1-1z"></path>
</symbol>
<symbol id="icon-calendar" viewBox="0 0 28 32">
<path d="M9.5 4h9v-2.5c0-0.828 0.669-1.5 1.5-1.5s1.5 0.672 1.5 1.5v2.5h2.5c2.206 0 4 1.791 4 4v20c0 2.206-1.794 4-4 4h-20c-2.209 0-4-1.794-4-4v-20c0-2.209 1.791-4 4-4h2.5v-2.5c0-0.828 0.669-1.5 1.5-1.5s1.5 0.672 1.5 1.5v2.5zM3 15.5h5v-3.5h-5v3.5zM3 18.5v4h5v-4h-5zM11 18.5v4h6v-4h-6zM20 18.5v4h5v-4h-5zM25 12h-5v3.5h5v-3.5zM25 25.5h-5v3.5h4c0.55 0 1-0.45 1-1v-2.5zM17 25.5h-6v3.5h6v-3.5zM8 25.5h-5v2.5c0 0.55 0.447 1 1 1h4v-3.5zM17 12h-6v3.5h6v-3.5z"></path>
</symbol>
<symbol id="icon-chart" viewBox="0 0 32 32">
<path d="M2 2c1.106 0 2 0.894 2 2v21c0 0.55 0.45 1 1 1h25c1.106 0 2 0.894 2 2s-0.894 2-2 2h-25c-2.763 0-5-2.238-5-5v-21c0-1.106 0.894-2 2-2zM10 14c1.106 0 2 0.894 2 2v4c0 1.106-0.894 2-2 2s-2-0.894-2-2v-4c0-1.106 0.894-2 2-2zM18 10v10c0 1.106-0.894 2-2 2s-2-0.894-2-2v-10c0-1.106 0.894-2 2-2s2 0.894 2 2zM22 12c1.106 0 2 0.894 2 2v6c0 1.106-0.894 2-2 2s-2-0.894-2-2v-6c0-1.106 0.894-2 2-2zM30 6v14c0 1.106-0.894 2-2 2s-2-0.894-2-2v-14c0-1.106 0.894-2 2-2s2 0.894 2 2z"></path>
</symbol>
<symbol id="icon-earth" viewBox="0 0 32 32">
<path d="M3.606 12.063l0.588 1.025c0.519 0.906 1.369 1.575 2.375 1.863l3.619 1.031c1.075 0.306 1.813 1.287 1.813 2.406v2.494c0 0.688 0.387 1.313 1 1.619s1 0.931 1 1.619v2.438c0 0.975 0.931 1.681 1.869 1.413 1.006-0.288 1.787-1.094 2.044-2.113l0.175-0.7c0.262-1.056 0.95-1.962 1.894-2.5l0.506-0.288c0.938-0.531 1.512-1.531 1.512-2.606v-0.519c0-0.794-0.319-1.556-0.881-2.119l-0.244-0.244c-0.563-0.563-1.325-0.881-2.119-0.881h-2.694c-0.694 0-1.381-0.181-1.988-0.525l-2.156-1.231c-0.269-0.156-0.475-0.406-0.575-0.7-0.2-0.6 0.069-1.25 0.637-1.531l0.369-0.188c0.412-0.206 0.894-0.244 1.331-0.094l1.45 0.481c0.512 0.169 1.075-0.025 1.369-0.469 0.294-0.438 0.262-1.019-0.075-1.425l-0.85-1.019c-0.625-0.75-0.619-1.844 0.019-2.581l0.981-1.144c0.55-0.644 0.637-1.563 0.219-2.294l-0.15-0.263c-0.219-0.013-0.431-0.019-0.65-0.019-5.8 0-10.719 3.806-12.387 9.063zM29 16c0-2.3-0.6-4.463-1.65-6.344l-1.6 0.644c-0.981 0.394-1.488 1.488-1.156 2.488l1.056 3.169c0.219 0.65 0.75 1.144 1.413 1.306l1.819 0.456c0.075-0.563 0.113-1.137 0.113-1.719zM32 16c0 8.837-7.163 16-16 16s-16-7.163-16-16 7.162-16 16-16 16 7.162 16 16z"></path>
</symbol>
<symbol id="icon-mountain" viewBox="0 0 32 32">
<path d="M16 2c0.781 0 1.506 0.4 1.919 1.063l13.544 21.587c0.35 0.556 0.538 1.2 0.538 1.856 0 1.931-1.563 3.494-3.494 3.494h-25.012c-1.931 0-3.494-1.563-3.494-3.494 0-0.656 0.188-1.3 0.537-1.856l13.537-21.587c0.412-0.663 1.144-1.063 1.925-1.063zM20.063 14l-4.063-6.475-4.944 7.881 1.944 2.594 3-4h4.063z"></path>
</symbol>
<symbol id="icon-pencil" viewBox="0 0 32 32">
<path d="M26.356 13.769l-14.931 14.931c-0.412 0.413-0.925 0.719-1.488 0.881l-8.012 2.356c-0.525 0.156-1.094 0.012-1.481-0.381s-0.537-0.95-0.381-1.481l2.356-8.006c0.163-0.563 0.469-1.075 0.881-1.488l14.931-14.931 8.119 8.119zM6 22.119l-0.581 0.581c-0.056 0.056-0.1 0.131-0.125 0.212l-1.581 5.375 5.375-1.581c0.081-0.025 0.156-0.069 0.213-0.125l0.581-0.581h-2.881c-0.55 0-1-0.45-1-1v-2.881zM28.331 1.206l2.462 2.463c1.563 1.563 1.563 4.094 0 5.656l-3.025 3.025-8.125-8.119 3.025-3.025c1.563-1.563 4.094-1.563 5.656 0z"></path>
</symbol>
<symbol id="icon-star" viewBox="0 0 36 32">
<path d="M17.994 0c0.575 0 1.1 0.328 1.35 0.845l4.288 8.83 9.581 1.419c0.563 0.081 1.025 0.475 1.206 1.012 0.175 0.544 0.031 1.137-0.369 1.531l-6.95 6.887 1.644 9.719c0.094 0.563-0.137 1.137-0.606 1.469-0.462 0.331-1.131 0.375-1.581 0.106l-8.563-4.575-8.613 4.575c-0.45 0.269-1.063 0.225-1.531-0.106-0.463-0.331-0.694-0.906-0.656-1.469l1.694-9.719-6.943-6.887c-0.404-0.394-0.547-0.988-0.369-1.531 0.177-0.537 0.644-0.931 1.206-1.012l9.576-1.419 4.287-8.83c0.256-0.517 0.775-0.845 1.35-0.845v0zM17.994 4.934l-3.281 6.766c-0.219 0.444-0.644 0.756-1.131 0.831l-7.395 1.088 5.37 5.319c0.344 0.344 0.5 0.837 0.419 1.319l-1.262 7.475 6.575-3.512c0.444-0.238 0.975-0.238 1.413 0l6.575 3.512-1.262-7.475c-0.081-0.481 0.081-0.975 0.425-1.319l5.369-5.319-7.394-1.088c-0.494-0.075-0.919-0.387-1.131-0.831l-3.288-6.766z"></path>
</symbol>
<symbol id="icon-star-solid" viewBox="0 0 36 32">
<path d="M19.806 1.125c-0.331-0.688-1.031-1.125-1.8-1.125s-1.462 0.438-1.8 1.125l-4.019 8.269-8.975 1.325c-0.75 0.113-1.375 0.637-1.606 1.356s-0.044 1.512 0.494 2.044l6.513 6.444-1.537 9.106c-0.125 0.75 0.188 1.512 0.806 1.956s1.438 0.5 2.113 0.144l8.019-4.281 8.019 4.281c0.675 0.356 1.494 0.306 2.113-0.144s0.931-1.206 0.806-1.956l-1.544-9.106 6.513-6.444c0.538-0.531 0.731-1.325 0.494-2.044s-0.856-1.244-1.606-1.356l-8.981-1.325-4.019-8.269z"></path>
</symbol>
<symbol id="icon-trash" viewBox="0 0 28 32">
<path d="M8.45 1.106c0.338-0.681 1.031-1.106 1.787-1.106h7.525c0.756 0 1.45 0.425 1.788 1.106l0.45 0.894h6c1.106 0 2 0.894 2 2s-0.894 2-2 2h-24c-1.106 0-2-0.894-2-2s0.894-2 2-2h6l0.45-0.894zM2 8h24v20c0 2.206-1.794 4-4 4h-16c-2.206 0-4-1.794-4-4v-20zM8 12c-0.55 0-1 0.45-1 1v14c0 0.55 0.45 1 1 1s1-0.45 1-1v-14c0-0.55-0.45-1-1-1zM14 12c-0.55 0-1 0.45-1 1v14c0 0.55 0.45 1 1 1s1-0.45 1-1v-14c0-0.55-0.45-1-1-1zM20 12c-0.55 0-1 0.45-1 1v14c0 0.55 0.45 1 1 1s1-0.45 1-1v-14c0-0.55-0.45-1-1-1z"></path>
</symbol>
<symbol id="icon-add" viewBox="0 0 24 24">
<path d="M17.016 12.984v-1.969h-4.031v-4.031h-1.969v4.031h-4.031v1.969h4.031v4.031h1.969v-4.031h4.031zM12 2.016q4.125 0 7.055 2.93t2.93 7.055-2.93 7.055-7.055 2.93-7.055-2.93-2.93-7.055 2.93-7.055 7.055-2.93z"></path>
</symbol>
<symbol id="icon-remove" viewBox="0 0 24 24">
<path d="M12 20.016q3.281 0 5.648-2.367t2.367-5.648-2.367-5.648-5.648-2.367-5.648 2.367-2.367 5.648 2.367 5.648 5.648 2.367zM12 2.016q4.125 0 7.055 2.93t2.93 7.055-2.93 7.055-7.055 2.93-7.055-2.93-2.93-7.055 2.93-7.055 7.055-2.93zM6.984 11.016h10.031v1.969h-10.031v-1.969z"></path>
</symbol>
<symbol id="icon-arrow-left" viewBox="0 0 28 32">
<path d="M0.588 14.588c-0.781 0.781-0.781 2.050 0 2.831l10 10c0.781 0.781 2.050 0.781 2.831 0s0.781-2.050 0-2.831l-6.594-6.587h19.175c1.106 0 2-0.894 2-2s-0.894-2-2-2h-19.169l6.581-6.588c0.781-0.781 0.781-2.050 0-2.831s-2.050-0.781-2.831 0l-10 10z"></path>
</symbol>
<symbol id="icon-chevron-left" viewBox="0 0 24 32">
<path d="M2.587 14.588c-0.781 0.781-0.781 2.050 0 2.831l12 12c0.781 0.781 2.050 0.781 2.831 0s0.781-2.050 0-2.831l-10.588-10.588 10.581-10.588c0.781-0.781 0.781-2.050 0-2.831s-2.050-0.781-2.831 0l-12 12z"></path>
</symbol>
<symbol id="icon-chevron-right" viewBox="0 0 24 32">
<path d="M21.413 14.588c0.781 0.781 0.781 2.050 0 2.831l-12 12c-0.781 0.781-2.050 0.781-2.831 0s-0.781-2.050 0-2.831l10.588-10.588-10.581-10.588c-0.781-0.781-0.781-2.050 0-2.831s2.050-0.781 2.831 0l12 12z"></path>
</symbol>
<symbol id="icon-plus" viewBox="0 0 28 32">
<path d="M16 5c0-1.106-0.894-2-2-2s-2 0.894-2 2v9h-9c-1.106 0-2 0.894-2 2s0.894 2 2 2h9v9c0 1.106 0.894 2 2 2s2-0.894 2-2v-9h9c1.106 0 2-0.894 2-2s-0.894-2-2-2h-9v-9z"></path>
</symbol>
<symbol id="icon-location" viewBox="0 0 32 32">
<path d="M16 0c1.106 0 2 0.894 2 2v2.169c5.025 0.838 8.994 4.806 9.831 9.831h2.169c1.106 0 2 0.894 2 2s-0.894 2-2 2h-2.169c-0.837 5.025-4.806 8.994-9.831 9.831v2.169c0 1.106-0.894 2-2 2s-2-0.894-2-2v-2.169c-5.025-0.837-8.994-4.806-9.831-9.831h-2.169c-1.106 0-2-0.894-2-2s0.894-2 2-2h2.169c0.838-5.025 4.806-8.994 9.831-9.831v-2.169c0-1.106 0.894-2 2-2zM8 16c0 4.419 3.581 8 8 8s8-3.581 8-8-3.581-8-8-8-8 3.581-8 8zM16 21c-2.762 0-5-2.238-5-5s2.238-5 5-5 5 2.238 5 5-2.238 5-5 5z"></path>
</symbol>
<symbol id="icon-question" viewBox="0 0 32 32">
<path d="M16 32c8.837 0 16-7.163 16-16s-7.163-16-16-16-16 7.162-16 16 7.162 16 16 16zM10.613 10.331c0.494-1.394 1.819-2.331 3.3-2.331h3.644c2.181 0 3.944 1.769 3.944 3.944 0 1.412-0.756 2.719-1.981 3.425l-2.019 1.156c-0.012 0.813-0.681 1.475-1.5 1.475-0.831 0-1.5-0.669-1.5-1.5v-0.844c0-0.537 0.287-1.031 0.756-1.3l2.769-1.588c0.294-0.169 0.475-0.481 0.475-0.819 0-0.525-0.425-0.944-0.944-0.944h-3.644c-0.213 0-0.4 0.131-0.469 0.331l-0.025 0.075c-0.275 0.781-1.137 1.188-1.912 0.912s-1.188-1.137-0.912-1.912l0.025-0.075zM18 22c0 1.106-0.894 2-2 2s-2-0.894-2-2 0.894-2 2-2 2 0.894 2 2z"></path>
</symbol>
</defs>
</svg>
