<svg aria-hidden="true" style="width:0;height:0;position:absolute;overflow:hidden" xmlns="http://www.w3.org/2000/svg"><defs><symbol id="icon-book" viewBox="0 0 28 32"><path d="M6 0C2.687 0 0 2.688 0 6v20c0 3.313 2.688 6 6 6h20c1.106 0 2-.894 2-2s-.894-2-2-2v-4c1.106 0 2-.894 2-2V2c0-1.106-.894-2-2-2H6zm0 24h16v4H6c-1.106 0-2-.894-2-2s.894-2 2-2zM8 9c0-.55.45-1 1-1h12c.55 0 1 .45 1 1s-.45 1-1 1H9c-.55 0-1-.45-1-1zm1 3h12c.55 0 1 .45 1 1s-.45 1-1 1H9c-.55 0-1-.45-1-1s.45-1 1-1z"/></symbol><symbol id="icon-calendar" viewBox="0 0 28 32"><path d="M9.5 4h9V1.5c0-.828.669-1.5 1.5-1.5s1.5.672 1.5 1.5V4H24c2.206 0 4 1.791 4 4v20c0 2.206-1.794 4-4 4H4c-2.209 0-4-1.794-4-4V8a4 4 0 0 1 4-4h2.5V1.5C6.5.672 7.169 0 8 0s1.5.672 1.5 1.5V4zM3 15.5h5V12H3v3.5zm0 3v4h5v-4H3zm8 0v4h6v-4h-6zm9 0v4h5v-4h-5zm5-6.5h-5v3.5h5V12zm0 13.5h-5V29h4c.55 0 1-.45 1-1v-2.5zm-8 0h-6V29h6v-3.5zm-9 0H3V28c0 .55.447 1 1 1h4v-3.5zM17 12h-6v3.5h6V12z"/></symbol><symbol id="icon-chart" viewBox="0 0 32 32"><path d="M2 2c1.106 0 2 .894 2 2v21c0 .55.45 1 1 1h25c1.106 0 2 .894 2 2s-.894 2-2 2H5c-2.763 0-5-2.238-5-5V4c0-1.106.894-2 2-2zm8 12c1.106 0 2 .894 2 2v4c0 1.106-.894 2-2 2s-2-.894-2-2v-4c0-1.106.894-2 2-2zm8-4v10c0 1.106-.894 2-2 2s-2-.894-2-2V10c0-1.106.894-2 2-2s2 .894 2 2zm4 2c1.106 0 2 .894 2 2v6c0 1.106-.894 2-2 2s-2-.894-2-2v-6c0-1.106.894-2 2-2zm8-6v14c0 1.106-.894 2-2 2s-2-.894-2-2V6c0-1.106.894-2 2-2s2 .894 2 2z"/></symbol><symbol id="icon-earth" viewBox="0 0 32 32"><path d="m3.606 12.063.588 1.025a4.008 4.008 0 0 0 2.375 1.863l3.619 1.031a2.497 2.497 0 0 1 1.813 2.406v2.494c0 .688.387 1.313 1 1.619s1 .931 1 1.619v2.438c0 .975.931 1.681 1.869 1.413a2.949 2.949 0 0 0 2.044-2.113l.175-.7a3.99 3.99 0 0 1 1.894-2.5l.506-.288a2.994 2.994 0 0 0 1.512-2.606v-.519c0-.794-.319-1.556-.881-2.119l-.244-.244a2.999 2.999 0 0 0-2.119-.881h-2.694a4.038 4.038 0 0 1-1.988-.525l-2.156-1.231a1.295 1.295 0 0 1-.575-.7c-.2-.6.069-1.25.637-1.531l.369-.188a1.73 1.73 0 0 1 1.331-.094l1.45.481a1.193 1.193 0 0 0 1.294-1.894l-.85-1.019a1.995 1.995 0 0 1 .019-2.581l.981-1.144c.55-.644.637-1.563.219-2.294l-.15-.263a10.85 10.85 0 0 0-.65-.019c-5.8 0-10.719 3.806-12.387 9.063zM29 16c0-2.3-.6-4.463-1.65-6.344l-1.6.644a2.006 2.006 0 0 0-1.156 2.488l1.056 3.169c.219.65.75 1.144 1.413 1.306l1.819.456c.075-.563.113-1.137.113-1.719zm3 0c0 8.837-7.163 16-16 16S0 24.837 0 16 7.162 0 16 0s16 7.162 16 16z"/></symbol><symbol id="icon-mountain" viewBox="0 0 32 32"><path d="M16 2c.781 0 1.506.4 1.919 1.063L31.463 24.65A3.488 3.488 0 0 1 28.507 30H3.495a3.492 3.492 0 0 1-2.957-5.35L14.075 3.063A2.267 2.267 0 0 1 16 2zm4.063 12L16 7.525l-4.944 7.881L13 18l3-4h4.063z"/></symbol><symbol id="icon-pencil" viewBox="0 0 32 32"><path d="M26.356 13.769 11.425 28.7a3.458 3.458 0 0 1-1.488.881l-8.012 2.356c-.525.156-1.094.012-1.481-.381s-.537-.95-.381-1.481l2.356-8.006a3.484 3.484 0 0 1 .881-1.488L18.231 5.65l8.119 8.119zM6 22.119l-.581.581a.52.52 0 0 0-.125.212l-1.581 5.375 5.375-1.581a.53.53 0 0 0 .213-.125L9.882 26H7.001c-.55 0-1-.45-1-1v-2.881zM28.331 1.206l2.462 2.463a3.997 3.997 0 0 1 0 5.656l-3.025 3.025-8.125-8.119 3.025-3.025a3.997 3.997 0 0 1 5.656 0z"/></symbol><symbol id="icon-star" viewBox="0 0 36 32"><path d="M17.994 0a1.5 1.5 0 0 1 1.35.845l4.288 8.83 9.581 1.419a1.5 1.5 0 0 1 1.206 1.012 1.503 1.503 0 0 1-.369 1.531l-6.95 6.887 1.644 9.719a1.497 1.497 0 0 1-.606 1.469c-.462.331-1.131.375-1.581.106l-8.563-4.575-8.613 4.575c-.45.269-1.063.225-1.531-.106-.463-.331-.694-.906-.656-1.469l1.694-9.719-6.943-6.887a1.496 1.496 0 0 1 .837-2.543l9.576-1.419 4.287-8.83A1.506 1.506 0 0 1 17.995 0zm0 4.934L14.713 11.7a1.525 1.525 0 0 1-1.131.831l-7.395 1.088 5.37 5.319c.344.344.5.837.419 1.319l-1.262 7.475 6.575-3.512a1.487 1.487 0 0 1 1.413 0l6.575 3.512-1.262-7.475a1.517 1.517 0 0 1 .425-1.319l5.369-5.319-7.394-1.088a1.501 1.501 0 0 1-1.131-.831l-3.288-6.766z"/></symbol><symbol id="icon-star-solid" viewBox="0 0 36 32"><path d="M19.806 1.125a2.004 2.004 0 0 0-3.6 0l-4.019 8.269-8.975 1.325c-.75.113-1.375.637-1.606 1.356s-.044 1.512.494 2.044l6.513 6.444-1.537 9.106c-.125.75.188 1.512.806 1.956s1.438.5 2.113.144l8.019-4.281 8.019 4.281c.675.356 1.494.306 2.113-.144s.931-1.206.806-1.956l-1.544-9.106 6.513-6.444a2.002 2.002 0 0 0-1.112-3.4l-8.981-1.325-4.019-8.269z"/></symbol><symbol id="icon-trash" viewBox="0 0 28 32"><path d="M8.45 1.106A1.992 1.992 0 0 1 10.237 0h7.525c.756 0 1.45.425 1.788 1.106L20 2h6c1.106 0 2 .894 2 2s-.894 2-2 2H2C.894 6 0 5.106 0 4s.894-2 2-2h6l.45-.894zM2 8h24v20c0 2.206-1.794 4-4 4H6c-2.206 0-4-1.794-4-4V8zm6 4c-.55 0-1 .45-1 1v14c0 .55.45 1 1 1s1-.45 1-1V13c0-.55-.45-1-1-1zm6 0c-.55 0-1 .45-1 1v14c0 .55.45 1 1 1s1-.45 1-1V13c0-.55-.45-1-1-1zm6 0c-.55 0-1 .45-1 1v14c0 .55.45 1 1 1s1-.45 1-1V13c0-.55-.45-1-1-1z"/></symbol><symbol id="icon-add" viewBox="0 0 24 24"><path d="M17.016 12.984v-1.969h-4.031V6.984h-1.969v4.031H6.985v1.969h4.031v4.031h1.969v-4.031h4.031zM12 2.016q4.125 0 7.055 2.93t2.93 7.055-2.93 7.055T12 21.986t-7.055-2.93-2.93-7.055 2.93-7.055T12 2.016z"/></symbol><symbol id="icon-remove" viewBox="0 0 24 24"><path d="M12 20.016q3.281 0 5.648-2.367t2.367-5.648-2.367-5.648T12 3.986 6.352 6.353t-2.367 5.648 2.367 5.648T12 20.016zm0-18q4.125 0 7.055 2.93t2.93 7.055-2.93 7.055T12 21.986t-7.055-2.93-2.93-7.055 2.93-7.055T12 2.016zm-5.016 9h10.031v1.969H6.984v-1.969z"/></symbol><symbol id="icon-arrow-left" viewBox="0 0 28 32"><path d="M.588 14.588a2.003 2.003 0 0 0 0 2.831l10 10c.781.781 2.05.781 2.831 0s.781-2.05 0-2.831l-6.594-6.587H26c1.106 0 2-.894 2-2s-.894-2-2-2H6.831l6.581-6.588c.781-.781.781-2.05 0-2.831s-2.05-.781-2.831 0l-10 10z"/></symbol><symbol id="icon-chevron-left" viewBox="0 0 24 32"><path d="M2.587 14.588a2.003 2.003 0 0 0 0 2.831l12 12c.781.781 2.05.781 2.831 0s.781-2.05 0-2.831L6.83 16 17.411 5.412c.781-.781.781-2.05 0-2.831s-2.05-.781-2.831 0l-12 12z"/></symbol><symbol id="icon-chevron-right" viewBox="0 0 24 32"><path d="M21.413 14.588c.781.781.781 2.05 0 2.831l-12 12c-.781.781-2.05.781-2.831 0s-.781-2.05 0-2.831L17.17 16 6.589 5.412c-.781-.781-.781-2.05 0-2.831s2.05-.781 2.831 0l12 12z"/></symbol><symbol id="icon-plus" viewBox="0 0 28 32"><path d="M16 5c0-1.106-.894-2-2-2s-2 .894-2 2v9H3c-1.106 0-2 .894-2 2s.894 2 2 2h9v9c0 1.106.894 2 2 2s2-.894 2-2v-9h9c1.106 0 2-.894 2-2s-.894-2-2-2h-9V5z"/></symbol></defs></svg>